<?xml version="1.0" encoding="UTF-8" standalone="no"?>
<!-- Created with Inkscape (http://www.inkscape.org/) -->

<svg
   width="833.38867"
   height="833.38867"
   viewBox="0 0 833.38867 833.38867"
   version="1.1"
   id="svg1"
   xml:space="preserve"
   inkscape:version="1.3.2 (091e20e, 2023-11-25, custom)"
   sodipodi:docname="24clockDial.svg"
   xmlns:inkscape="http://www.inkscape.org/namespaces/inkscape"
   xmlns:sodipodi="http://sodipodi.sourceforge.net/DTD/sodipodi-0.dtd"
   xmlns="http://www.w3.org/2000/svg"
   xmlns:svg="http://www.w3.org/2000/svg"><sodipodi:namedview
     id="namedview1"
     pagecolor="#ffffff"
     bordercolor="#000000"
     borderopacity="0.25"
     inkscape:showpageshadow="2"
     inkscape:pageopacity="0.0"
     inkscape:pagecheckerboard="true"
     inkscape:deskcolor="#d1d1d1"
     inkscape:document-units="px"
     inkscape:zoom="0.66666667"
     inkscape:cx="473.25"
     inkscape:cy="377.25"
     inkscape:window-width="1920"
     inkscape:window-height="1137"
     inkscape:window-x="-8"
     inkscape:window-y="-8"
     inkscape:window-maximized="1"
     inkscape:current-layer="layer1" /><defs
     id="defs1" /><g
     inkscape:groupmode="layer"
     id="layer2"
     inkscape:label="border"
     style="display:inline;fill:#ffffff"
     transform="translate(-612.95533,-117.76551)"><circle
       style="fill:#ffffff;fill-opacity:0.7022;stroke:#000000;stroke-width:35.0205;stroke-dasharray:none;stroke-opacity:1"
       id="path4"
       cx="1029.6497"
       cy="534.45984"
       r="399.18408" /></g><g
     inkscape:groupmode="layer"
     id="layer5"
     inkscape:label="bg"
     style="fill:#ffffff"
     transform="translate(-44.555616,-38.55564)" /><g
     inkscape:label="clock dial"
     inkscape:groupmode="layer"
     id="layer1"
     transform="translate(-612.95533,-117.76551)"><path
       style="fill:#000000"
       d="m 951.01581,870.27258 c -2.9925,-3.8043 -3.2234,-10.5733 -0.6556,-19.22 3.0138,-10.1487 10.3216,-13.8071 16.6304,-8.3255 4.075,3.5408 4.948,9.6172 2.5612,17.8276 -2.7419,9.4316 -5.7989,12.8578 -11.4725,12.8578 -3.5433,0 -5.1585,-0.718 -7.0635,-3.1399 z m 12.8481,-5.7448 c 2.3561,-4.7872 3.2312,-16.8713 1.383,-19.0982 -2.0605,-2.4827 -5.192,-2.2668 -7.7254,0.5326 -2.6714,2.9518 -5.6127,15.0739 -4.7072,19.3995 1.4065,6.7187 7.561,6.2543 11.0496,-0.8339 z m -6.5235,-5.9541 c -0.8386,-2.1853 0.382,-4.2279 2.5264,-4.2279 2.4525,0 3.3817,2.2499 1.7441,4.2231 -1.8332,2.209 -3.424,2.2108 -4.2705,0 z m 140.92039,12.369 c -3.5697,-2.8079 -4.2423,-8.2401 -1.3205,-10.665 1.587,-1.317 1.3788,-1.7778 -1.6299,-3.6075 -6.7357,-4.0962 -5.36,-13.8125 2.3355,-16.4952 5.4362,-1.895 11.387,-1.6675 12.206,0.4667 0.5269,1.3731 -0.2543,1.7875 -3.37,1.7875 -6.126,0 -10.0066,1.9159 -10.8731,5.3684 -1.124,4.4785 2.4752,8.0721 7.4976,7.4858 4.1945,-0.4897 6.6474,2.2453 3.0174,3.3644 -4.3059,1.3274 -5.6519,2.589 -6.0165,5.6394 -0.5493,4.5962 3.8351,6.3777 9.6828,3.9343 2.8564,-1.1935 4.6046,-1.3963 5.1018,-0.5918 0.995,1.61 -0.4177,2.7792 -5.3509,4.4285 -5.6954,1.9042 -7.6923,1.7067 -11.2802,-1.1155 z m -172.05859,-5.909 c -1.4747,-0.5927 -2.6724,-1.2291 -2.6616,-1.414 0.011,-0.185 1.8662,-6.1871 4.123,-13.338 4.116,-13.0417 4.2754,-15.0025 1.2198,-15.0025 -1.9991,0 -3.3745,-1.9713 -2.4355,-3.4906 0.8946,-1.4474 16.437,3.7866 17.0936,5.7564 0.3496,1.0489 -0.691,1.3794 -3.4789,1.105 l -3.9778,-0.3917 -3.3994,10.5074 c -1.8697,5.7791 -3.1047,11.2757 -2.7444,12.2146 0.3603,0.939 1.9958,1.7072 3.6343,1.7072 2.1586,0 2.7902,0.4924 2.2932,1.7875 -0.7563,1.971 -5.4743,2.2437 -9.6663,0.5587 z m 200.04129,-2.2069 c -3.5314,-3.5315 -3.2087,-9.1129 1.0795,-18.6705 1.9812,-4.4157 3.4055,-8.2251 3.1651,-8.4655 -0.2404,-0.2404 -2.7331,0.373 -5.5394,1.3631 -6.2577,2.2079 -8.3778,2.2705 -8.3778,0.2473 0,-1.3853 14.0575,-6.7887 17.6617,-6.7887 2.4357,0 1.5431,4.2843 -2.7658,13.2755 -4.7015,9.8104 -4.9339,11.3215 -2.3158,15.0594 2.3031,3.2881 6.4104,3.393 10.3868,0.2651 3.5616,-2.8016 4.4415,-2.9562 4.4415,-0.7805 0,2.8723 -4.5566,5.8162 -9.9416,6.4232 -4.277,0.4821 -5.7475,0.1183 -7.7942,-1.9284 z m -257.80939,-21.2914 c -3.0068,-3.4241 -3.42,-6.6865 -1.6089,-12.7043 2.2268,-7.3991 7.1511,-14.4285 11.316,-16.1537 6.7255,-2.7858 13.2166,1.5758 13.1931,8.8648 -0.015,4.7175 -4.731,14.6605 -8.9172,18.8015 -3.9648,3.9221 -11.0549,4.5263 -13.983,1.1917 z m 11.1168,-3.9945 c 3.8458,-3.8458 8.5647,-15.0264 7.7358,-18.3288 -0.771,-3.0719 -3.9963,-4.6836 -7.0374,-3.5166 -4.9119,1.8849 -11.8389,17.5686 -9.9424,22.5108 1.0153,2.6458 6.3142,2.2643 9.244,-0.6654 z m -3.6966,-9.4117 c 0,-1.5167 0.7944,-2.3834 2.1847,-2.3834 2.8113,0 3.7717,1.0017 2.9682,3.0957 -1.0116,2.6361 -5.1529,2.0636 -5.1529,-0.7123 z m 305.42609,12.511 c -3.7916,-2.6558 -4.2494,-7.309 -1.6996,-17.2777 1.2573,-4.9156 2.0716,-9.1625 1.8096,-9.4375 -0.262,-0.275 -3.1545,0.7544 -6.4278,2.2875 -5.9436,2.7838 -8.6474,2.6443 -6.1877,-0.3195 0.7161,-0.8628 4.5782,-3.1346 8.5826,-5.0485 9.1644,-4.3802 10.1358,-3.3257 7.0089,7.6083 -2.7443,9.5964 -2.8767,16.0332 -0.3812,18.5288 2.7129,2.7128 4.6686,2.3343 9.3993,-1.8193 3.5281,-3.0977 4.3234,-3.383 4.9415,-1.7724 0.8914,2.323 -1.1912,5.0296 -5.6403,7.3303 -4.2498,2.1977 -8.1929,2.17 -11.4053,-0.08 z m -333.63209,-11.2442 c -5.4023,-2.4529 -7.544,-5.343 -7.544,-10.1802 0,-4.7807 4.5286,-8.3176 13.7463,-10.736 4.5647,-1.1976 8.7372,-2.5571 9.2721,-3.0212 0.535,-0.4641 -1.476,-2.2788 -4.4687,-4.03271 -2.9928,-1.75387 -5.4414,-3.97063 -5.4414,-4.92612 0,-2.55507 0.9847,-2.21823 9.784,3.34682 5.4696,3.45921 7.7038,5.53101 7.0701,6.55631 -0.5095,0.8244 -4.8435,2.5844 -9.631,3.9111 -4.7875,1.3267 -10.18,3.1751 -11.9832,4.1076 -6.3993,3.3092 -4.8561,9.9322 2.9116,12.4958 2.7938,0.922 3.8924,1.9014 3.4438,3.0703 -0.8316,2.1671 -1.1393,2.1417 -7.1596,-0.5917 z m 361.05679,-2.4668 c -1.4319,-0.5769 -3.1747,-2.1164 -3.8729,-3.4211 -1.5879,-2.9669 -1.5915,-12.201 -0.01,-19.0716 0.6622,-2.87204 1.0334,-5.39236 0.8251,-5.60072 -0.2084,-0.20836 -2.9348,1.28375 -6.0587,3.31582 -3.9928,2.5973 -6.0541,3.3203 -6.9401,2.4343 -0.886,-0.886 1.1546,-2.88034 6.8703,-6.7147 5.0642,-3.39732 8.5523,-5.03269 9.2488,-4.33622 0.6965,0.69647 0.5995,4.25902 -0.2572,9.44612 -1.8636,11.2848 -1.7293,16.2821 0.4973,18.5088 2.8491,2.849 6.2683,2.2567 10.3114,-1.7864 2.7558,-2.7558 3.8963,-3.2751 4.6202,-2.1038 1.2473,2.0182 -3.0653,6.7391 -8.1263,8.8956 -2.1091,0.8986 -3.986,1.5999 -4.1709,1.5583 -0.1849,-0.042 -1.5077,-0.5475 -2.9395,-1.1244 z M 796.22031,790.81276 c -4.1908,-4.46095 -3.4674,-10.21919 2.1816,-17.36575 7.7423,-9.79471 15.385,-12.26019 20.9024,-6.74286 5.4042,5.40427 3.3894,12.03712 -6.4533,21.24376 -7.0707,6.61382 -12.2677,7.50907 -16.6307,2.86485 z m 14.0176,-6.22489 c 6.086,-5.69276 9.1623,-11.18774 7.9833,-14.26018 -2.0429,-5.3236 -9.8143,-2.63187 -16.379,5.67302 -4.7326,5.98718 -5.7603,10.01272 -3.2079,12.5651 2.587,2.58699 5.7412,1.50565 11.6036,-3.97794 z m -5.0895,-4.6341 c -0.9087,-2.368 2.4607,-5.0548 4.1813,-3.33422 1.6455,1.64551 0.4127,5.0346 -1.8314,5.0346 -0.9335,0 -1.991,-0.76517 -2.3499,-1.70038 z m 446.72859,-0.14381 c -8.5391,-9.38043 -9.4334,-10.04002 -11.3101,-8.34166 -2.4577,2.22414 -4.8349,2.39924 -4.8143,0.3546 0.023,-2.28629 12.8088,-13.04317 13.7306,-11.55178 0.4333,0.70118 -0.069,2.22175 -1.1164,3.37903 -1.0473,1.15729 -1.9042,2.50586 -1.9042,2.99682 0,0.49097 3.6197,4.84455 8.0438,9.67464 l 8.0437,8.78197 2.5895,-3.2143 c 2.259,-2.80412 2.6914,-2.95358 3.3883,-1.17118 0.9112,2.33032 -3.4811,9.27771 -5.8656,9.27771 -0.8322,0 -5.6856,-4.58363 -10.7853,-10.18585 z m -475.38819,-8.88425 c -4.6734,-5.17281 -5.349,-8.70722 -2.4545,-12.83974 1.2807,-1.82834 3.0746,-2.64849 5.7931,-2.64849 3.4528,0 3.8742,-0.33368 3.4204,-2.7078 -0.308,-1.6113 0.5178,-4.02407 2.0392,-5.95833 4.7353,-6.01991 14.117,-3.32935 18.5967,5.33327 1.323,2.55848 1.495,3.97675 0.5918,4.87992 -0.7002,0.70027 -1.4162,1.04084 -1.591,0.75683 -0.1747,-0.28401 -1.2067,-2.12514 -2.2931,-4.09139 -1.0865,-1.96625 -3.3038,-4.34747 -4.9273,-5.29161 -2.618,-1.52244 -3.3044,-1.48563 -6.0683,0.32539 -3.5844,2.34858 -3.9595,5.55109 -1.1519,9.836 2.5964,3.96258 0.5473,6.3101 -2.535,2.90421 -2.7957,-3.08924 -7.3171,-3.10345 -8.963,-0.0282 -1.546,2.88872 -0.1802,5.89788 4.2632,9.39308 1.6977,1.33536 2.7419,2.98569 2.3206,3.66742 -1.2829,2.07566 -2.5501,1.44021 -7.0409,-3.5306 z m 496.88419,-2.98272 c -2.8759,-3.10314 -4.2332,-8.45358 -4.2556,-16.77565 -0.01,-2.67628 -0.3827,-5.23555 -0.8344,-5.68726 -0.4517,-0.45171 -3.0703,1.38595 -5.8191,4.0837 -7.5036,7.36419 -7.8219,3.5894 -0.4181,-4.957 7.6924,-8.87935 8.7273,-8.23918 10.3797,6.42045 1.2821,11.3741 3.3203,15.13525 8.2018,15.13525 2.5081,0 6.1386,-4.06315 7.9858,-8.9375 0.2856,-0.75381 0.9814,-0.69465 1.8936,0.16099 3.2415,3.04062 -5.6695,13.54318 -11.4909,13.54318 -1.5814,0 -4.1207,-1.34378 -5.6428,-2.98616 z M 741.57181,725.638 c -6.36934,-2.56625 -6.92425,-11.02321 -1.0972,-16.72068 9.1001,-8.89773 19.5747,-11.83847 24.2437,-6.80642 6.1289,6.60544 1.7557,15.46029 -10.7011,21.66777 -6.5348,3.25646 -8.317,3.52271 -12.4454,1.85933 z m 12.7971,-6.96136 c 6.9965,-4.48312 9.7466,-7.7426 9.2665,-10.98327 -0.6717,-4.53529 -3.7044,-5.43633 -9.5266,-2.8305 -9.8539,4.4103 -16.77665,12.94744 -13.3101,16.414 1.8578,1.85778 8.6414,0.55795 13.5702,-2.60023 z m -4.4311,-4.43126 c -0.9932,-2.58825 1.5282,-5.0223 3.333,-3.2175 1.5254,1.52537 0.5804,5.0851 -1.3499,5.0851 -0.6965,0 -1.5889,-0.84042 -1.9831,-1.8676 z m 557.10089,6.73847 c -11.5195,-5.758 -15.1157,-10.91238 -12.2946,-17.62185 1.9358,-4.60385 3.2878,-5.4169 8.8792,-5.33973 6.0924,0.0841 14.703,4.32058 19.2065,9.44982 3.0183,3.43762 3.5715,4.90293 2.9896,7.91909 -1.4625,7.5808 -9.8225,10.07033 -18.7807,5.59267 z m 13.8179,-3.16849 c 2.6521,-2.65202 2.3431,-4.39066 -1.4044,-7.90249 -4.9082,-4.59955 -13.0497,-8.28938 -17.3669,-7.87093 -3.2778,0.31769 -3.834,0.86886 -4.1491,4.11169 -0.4064,4.18332 2.4466,6.85604 11.8961,11.14435 6.2758,2.84804 8.5853,2.95642 11.0243,0.51738 z m -13.1281,-5.71705 c -0.8945,-2.33081 0.3242,-4.327 2.6415,-4.327 1.1699,0 1.6667,0.90591 1.4192,2.58791 -0.4624,3.14245 -3.0903,4.26792 -4.0607,1.73909 z m 15.4031,-16.54158 c -1.3181,-1.47469 -3.6158,-6.16687 -5.1062,-10.42708 -1.4903,-4.26021 -3.1432,-8.21183 -3.673,-8.78137 -0.5299,-0.56954 -2.1081,1.20836 -3.5072,3.95089 -1.3992,2.74253 -3.0916,4.80387 -3.761,4.58074 -1.7057,-0.56859 -1.5217,-1.24381 2.5216,-9.25365 2.3336,-4.62275 4.1472,-6.8914 5.1894,-6.49147 0.8811,0.33814 3.0663,4.82099 4.8559,9.96189 3.6266,10.41792 6.5786,14.37463 10.7245,14.37463 3.5503,0 5.3967,-2.24923 6.2714,-7.6395 0.6954,-4.28532 1.9408,-5.38417 3.4092,-3.00817 1.4448,2.33762 -0.6697,9.15709 -3.8142,12.30162 -3.9922,3.99223 -9.7583,4.18199 -13.1104,0.43147 z m -592.40834,-0.78852 c -7.84637,-0.63335 -10.95883,-2.01992 -10.93607,-4.8719 0.003,-0.32771 4.15035,-2.80754 9.21717,-5.51075 7.54678,-4.02628 9.14505,-5.37289 8.83955,-7.44791 -0.41166,-2.79719 0.9265,-3.29023 3.0814,-1.13533 1.0691,1.06912 2.1502,1.05479 4.599,-0.061 2.5686,-1.17033 3.3951,-1.15216 4.181,0.0919 0.94,1.48801 -1.0906,3.8443 -4.2086,4.88363 -0.8506,0.28353 -0.315,2.58457 1.5069,6.47438 4.2662,9.10844 4.0336,9.21669 -16.28035,7.57695 z m 14.04765,-3.14357 c 0,-1.49443 -3.7112,-7.68666 -4.6068,-7.68666 -2.4233,0 -13.393,6.91833 -11.90724,7.50956 2.1559,0.8579 16.51404,1.01187 16.51404,0.1771 z M 704.6797,645.86869 c -3.3723,-1.43222 -6.38376,-5.85919 -6.38376,-9.38442 0,-5.9912 12.48705,-13.32129 22.69325,-13.32129 8.78806,0 13.69362,8.26608 8.93632,15.05809 -3.52998,5.03975 -19.78912,9.96507 -25.24581,7.64762 z m 16.34214,-6.91613 c 5.11258,-2.58956 6.54742,-3.94778 6.83927,-6.47401 0.56216,-4.86598 -3.00869,-6.25422 -11.30914,-4.39666 -7.50955,1.68056 -13.87,5.454 -14.47326,8.5865 -1.21051,6.28567 8.68682,7.47909 18.94313,2.28417 z m -8.4259,-3.80258 c 0,-3.00443 2.04321,-4.21944 4.1522,-2.46913 2.16976,1.80074 0.98749,4.78213 -1.89636,4.78213 -1.43853,0 -2.25584,-0.83802 -2.25584,-2.313 z m 627.14426,5.7537 c -7.0855,-2.7236 -11.0526,-6.99024 -11.0526,-11.887 0,-4.8605 2.417,-9.4287 4.9885,-9.4287 2.0777,0 2.1041,0.22932 0.4046,3.51582 -2.6794,5.18136 -2.2452,7.82959 1.8483,11.27408 4.7564,4.00219 5.9673,3.89944 4.3559,-0.36963 -1.06,-2.80812 -0.9174,-4.04479 0.7617,-6.60735 3.1283,-4.77449 7.4046,-5.9423 13.3897,-3.65658 8.0543,3.07596 9.9238,11.55909 3.8038,17.26068 -3.3465,3.11778 -10.2234,3.08012 -18.4999,-0.10132 z m 16.4034,-3.23964 c 5.1576,-4.17639 0.2927,-10.92606 -7.8751,-10.92606 -2.0125,0 -3.393,0.97522 -4.3482,3.07171 -1.6465,3.61358 -0.4077,6.28782 3.9509,8.52947 3.861,1.9857 5.1125,1.88357 8.2724,-0.67512 z M 691.85355,611.7634 c -2.30281,-9.16756 -2.29612,-8.85875 -0.19208,-8.85875 1.73972,0 2.28181,1.19098 3.6608,8.04274 0.69991,3.47762 1.10336,3.79456 3.96189,3.11233 4.675,-1.11577 4.84403,-1.33034 3.86341,-4.90452 -2.83827,-10.34497 11.107,-18.1628 18.38679,-10.30778 3.51765,3.79561 5.32983,13.31584 2.8354,14.89573 -2.62524,1.66274 -2.83013,1.36836 -2.94948,-4.23783 -0.14052,-6.6004 -2.02364,-8.98401 -7.09763,-8.98401 -6.66226,0 -9.74797,5.8354 -6.39682,12.09707 0.70851,1.32388 1.08509,2.61018 0.83683,2.85844 -0.24826,0.24826 -3.72703,1.21554 -7.73061,2.14951 l -7.27922,1.69813 z m 642.79235,-2.60237 c 0,-5.90707 2.7981,-15.78972 4.4706,-15.78972 1.2742,0 1.6144,0.98029 1.2357,3.56086 -0.5922,4.03441 -0.9242,3.85274 11.9487,6.53762 11.8482,2.47115 12.1367,2.43028 12.1367,-1.71941 0,-2.65495 0.446,-3.36646 1.7875,-2.85167 1.2565,0.48215 1.7875,2.44202 1.7875,6.59707 0,5.06487 -0.2986,5.82483 -2.0854,5.3083 -3.2746,-0.94659 -25.1533,-5.5161 -26.4109,-5.5161 -0.6213,0 -1.301,1.16456 -1.5104,2.58791 -0.4819,3.27473 -3.36,4.37556 -3.36,1.28514 z M 694.12511,560.42982 c -5.9195,-1.38804 -8.84144,-3.27466 -10.21773,-6.59733 -3.56639,-8.61002 3.33167,-14.08127 17.75731,-14.08432 8.06262,-0.002 8.998,0.26489 12.21459,3.48148 5.2438,5.2438 4.31164,11.49446 -2.21241,14.83544 -3.60618,1.84673 -13.85741,3.22866 -17.54176,2.36473 z m 16.68304,-6.86956 c 7.58639,-4.9708 -0.33904,-11.15746 -12.46722,-9.73203 -3.6035,0.42352 -7.80189,1.58911 -9.32975,2.5902 -3.53514,2.31632 -3.08282,6.41764 0.9431,8.55127 3.90463,2.06935 16.88331,1.19216 20.85387,-1.40944 z m -13.26988,-2.48514 c -0.41275,-1.07562 -0.17905,-2.52708 0.51934,-3.22547 1.81563,-1.81564 5.25574,-0.15622 4.78147,2.30646 -0.52827,2.74307 -4.3468,3.4051 -5.30081,0.91901 z m 648.19703,3.67021 c -2.7384,-2.35548 -3.3435,-3.84255 -3.3435,-8.21656 0,-7.01217 2.9184,-10.35746 9.0357,-10.35746 3.3618,0 5.0796,0.74261 6.8118,2.94472 2.296,2.91899 2.3348,2.9242 4.442,0.59583 2.8266,-3.12334 8.2075,-2.99931 11.2432,0.25916 2.9367,3.15218 3.2229,10.02931 0.5747,13.81014 -2.5413,3.62816 -10.3617,3.72837 -12.8578,0.16476 -1.4335,-2.04657 -1.9173,-2.18207 -2.7488,-0.7698 -1.2109,2.05647 -5.5175,4.44519 -8.0144,4.44519 -0.9896,0 -3.304,-1.29419 -5.1429,-2.87598 z m 10.8713,-3.7633 c 4.8212,-4.82118 -0.881,-13.07843 -7.0808,-10.25362 -1.5936,0.7261 -3.2439,2.70065 -3.6674,4.38789 -1.5064,6.00206 6.3334,10.28055 10.7482,5.86573 z m 14.2596,0.32427 c 1.4088,-1.03011 1.9836,-2.72526 1.7174,-5.06459 -0.3449,-3.03098 -0.9585,-3.56954 -4.446,-3.90255 -2.4332,-0.23233 -4.4447,0.24266 -5.0464,1.19167 -3.653,5.76174 2.3369,11.75196 7.775,7.77547 z M 689.03623,529.0196 c -4.93116,-3.00654 -6.75598,-6.9605 -5.73185,-12.41959 1.14275,-6.0914 4.52722,-5.90027 3.66055,0.20672 -0.73117,5.15226 0.94137,7.91993 5.93298,9.81774 4.04451,1.53772 4.81556,0.99512 3.11125,-2.18942 -1.92536,-3.59757 -1.56986,-6.65093 1.18161,-10.14886 2.05744,-2.61562 3.42818,-3.13988 8.20965,-3.13988 7.10737,0 10.58966,2.58824 11.54955,8.5843 0.61085,3.81573 0.21486,4.90515 -2.92374,8.04375 -3.38645,3.38645 -4.21673,3.62999 -12.36154,3.62583 -6.6193,-0.003 -9.67392,-0.5792 -12.62846,-2.38059 z m 24.10941,-6.37927 c 1.0309,-2.94754 0.79883,-3.71838 -1.73784,-5.77246 -2.16315,-1.75161 -3.99874,-2.19682 -7.02957,-1.70499 -4.49274,0.72907 -6.03616,2.34561 -6.06404,6.3513 -0.0242,3.48356 3.1018,5.17715 8.89713,4.8202 4.02799,-0.2481 4.92424,-0.806 5.93432,-3.69405 z m 629.66316,-0.76902 c -0.098,-3.9325 -0.2323,-7.77562 -0.2979,-8.54027 -0.065,-0.76466 0.5554,-1.61512 1.3798,-1.88991 0.9097,-0.30324 1.7988,1.00006 2.2619,3.31556 0.7516,3.75824 0.8429,3.80424 6.1153,3.08157 2.9438,-0.40349 8.4613,-0.73361 12.2611,-0.73361 h 6.9088 l -0.6769,-4.17084 c -0.4464,-2.75096 -0.208,-4.17083 0.7003,-4.17083 1.6257,0 3.7014,4.96474 3.7014,8.8531 0,2.35582 -0.7745,2.84578 -5.5288,3.49742 -3.0409,0.4168 -9.4759,0.75781 -14.3,0.75781 h -8.7712 v 3.575 c 0,2.38334 -0.5958,3.575 -1.7875,3.575 -1.3704,0 -1.8292,-1.66833 -1.9663,-7.15 z M 701.67319,473.51896 c -5.99989,-1.84667 -11.71891,-7.41692 -11.71891,-11.41408 0,-1.31096 1.63921,-4.02278 3.6427,-6.02627 3.41668,-3.41668 4.06366,-3.60365 10.42708,-3.01335 9.38116,0.87024 16.61918,4.00515 18.74683,8.11958 2.50329,4.84083 2.18498,6.80154 -1.74161,10.72814 -4.02665,4.02665 -9.90625,4.51448 -19.35609,1.60598 z m 18.02524,-4.61957 c 4.00871,-4.8302 -3.12239,-10.14137 -14.88403,-11.08548 -10.08364,-0.80942 -13.71384,1.88875 -9.77977,7.2689 3.4865,4.76808 21.55381,7.5639 24.6638,3.81658 z m -15.01016,-3.62427 c -0.41275,-1.07562 -0.17905,-2.52708 0.51934,-3.22547 1.81563,-1.81564 5.25574,-0.15622 4.78147,2.30646 -0.52827,2.74307 -4.3468,3.4051 -5.30081,0.91901 z m 648.42853,0.45133 c -7.865,-1.17049 -15.2385,-2.15486 -16.3854,-2.18749 -1.2986,-0.0369 -2.0855,-0.99436 -2.0855,-2.53733 0,-2.07323 0.5353,-2.36725 3.2771,-1.79992 8.0747,1.67081 25.8129,4.18516 26.2738,3.72424 0.2802,-0.28013 -0.1423,-3.22575 -0.9388,-6.54583 -1.447,-6.03175 -0.8526,-10.98614 1.0664,-8.88932 1.7112,1.86966 5.2449,18.49232 4.1361,19.45632 -0.574,0.49912 -7.4787,-0.0502 -15.3437,-1.22067 z m -22.407,-18.56932 c -0.9269,-1.52993 -4.4055,-13.74741 -4.4055,-15.47294 0,-2.67045 2.3809,-1.73277 3.575,1.40796 0.6229,1.63854 1.5816,2.97916 2.1303,2.97916 1.2963,0 21.9184,-6.96816 22.5799,-7.62971 0.2779,-0.27784 -0.4037,-1.89232 -1.5146,-3.58773 -1.9503,-2.97652 -1.9341,-3.08256 0.47,-3.08256 2.465,0 6.126,5.18842 6.126,8.68184 0,1.05849 -4.8069,3.16 -13.4062,5.86094 -11.3555,3.56662 -13.3438,4.55371 -12.9981,6.45274 0.2245,1.23309 0.4926,2.7112 0.5959,3.28469 0.2499,1.38876 -2.415,2.32331 -3.1527,1.10561 z M 715.59106,436.69982 c -5.88997,-4.81927 -11.08324,-8.53104 -11.54059,-8.24838 -0.45735,0.28266 -1.68607,3.45339 -2.73049,7.04607 -1.19098,4.09681 -2.55296,6.53214 -3.65316,6.53214 -0.96482,0 -1.75421,-0.40036 -1.75421,-0.88969 0,-2.57237 6.34162,-19.43587 7.19424,-19.13075 3.04609,1.09009 26.17243,20.41039 26.17243,21.86507 0,3.17414 -2.89482,1.65686 -13.68822,-7.17446 z m 18.25603,-43.4243 c -11.51957,-5.758 -15.11575,-10.91239 -12.29463,-17.62185 1.93577,-4.60385 3.28776,-5.4169 8.87918,-5.33974 6.09242,0.0841 14.70297,4.32059 19.20657,9.44982 3.0182,3.43763 3.5714,4.90294 2.9895,7.9191 -1.4624,7.5808 -9.8225,10.07033 -18.78062,5.59267 z m 13.81792,-3.16849 c 2.652,-2.65202 2.343,-4.39067 -1.4045,-7.90249 -4.9082,-4.59955 -13.04962,-8.28938 -17.36685,-7.87094 -3.27781,0.3177 -3.83399,0.86887 -4.14908,4.11169 -0.40647,4.18333 2.44653,6.85605 11.89605,11.14436 6.27578,2.84803 8.58528,2.95642 11.02438,0.51738 z m -13.1282,-5.71705 c -0.89442,-2.33081 0.3242,-4.327 2.64151,-4.327 1.16989,0 1.66679,0.90591 1.41929,2.58791 -0.4624,3.14245 -3.0904,4.26791 -4.0608,1.73909 z m 573.80079,6.48967 c -6.2183,-6.2183 -4.2184,-12.95701 5.5431,-18.67763 11.4742,-6.72434 20.0827,-5.66812 23.5482,2.88926 1.7563,4.33691 1.0071,7.17345 -1.4875,5.63171 -0.7125,-0.44037 -1.2955,-1.75841 -1.2955,-2.92898 0,-4.4906 -6.8144,-7.49852 -12.2566,-5.41015 -1.3327,0.51139 -0.9471,1.44208 1.69,4.07917 5.6418,5.64176 3.6685,12.84758 -4.4467,16.23833 -5.6828,2.37443 -7.3712,2.10211 -11.295,-1.82171 z m 12.4435,-3.75316 c 1.7269,-1.3584 3.1398,-3.32712 3.1398,-4.37492 0,-2.8471 -3.588,-6.26359 -6.5781,-6.26359 -3.2267,0 -8.9135,4.28674 -8.9135,6.719 0,6.32895 6.6186,8.4292 12.3518,3.91951 z M 750.63761,369.42965 c -1.9158,-1.91584 -3.4833,-4.61595 -3.4833,-6.00026 0,-2.12298 -0.3624,-2.32299 -2.3153,-1.27786 -3.0713,1.64373 -7.71624,-0.47279 -9.46611,-4.31335 -1.50866,-3.31115 0.41876,-9.33512 3.91441,-12.23423 4.6192,-3.83082 12.5257,-1.11573 12.9445,4.44514 0.1702,2.2584 0.704,2.47144 4.6228,1.84479 3.7053,-0.5925 4.9319,-0.20703 7.4942,2.35532 4.4487,4.44871 4.106,9.51825 -0.9879,14.61211 -4.9658,4.96579 -8.1822,5.10946 -12.7233,0.56834 z m 11.5541,-4.31132 c 4.0164,-6.12979 -3.7314,-13.13248 -9.1271,-8.24939 -2.8539,2.58272 -2.9977,6.18692 -0.3631,9.09812 2.8294,3.12654 7.138,2.74121 9.4902,-0.84873 z m -13.2499,-11.9845 c 0,-2.61799 -0.7381,-3.66052 -3.2059,-4.52841 -6.2203,-2.18757 -9.76211,5.50071 -4.2973,9.32839 3.5972,2.51956 7.5032,0.0208 7.5032,-4.79998 z m 544.56979,12.59322 c -3.0674,-5.04943 -4.0546,-7.68517 -3.1989,-8.54082 0.8556,-0.85565 1.724,-0.45871 2.8137,1.28626 0.8669,1.3881 1.9657,2.52382 2.4417,2.52382 1.2578,0 20.0112,-12.02907 20.0112,-12.83585 0,-0.37436 -0.899,-1.67398 -1.9977,-2.88805 -1.5251,-1.68519 -1.6679,-2.53719 -0.6037,-3.6014 1.0642,-1.0642 2.2416,-0.58192 4.9768,2.03861 1.9706,1.88793 3.5829,4.0815 3.5829,4.87462 0,0.79311 -5.1417,4.77284 -11.426,8.84384 -8.2963,5.37438 -11.2738,7.93763 -10.8703,9.35795 0.3057,1.07586 0.7552,2.69346 0.9989,3.59466 0.2438,0.9012 -0.1722,1.86603 -0.9244,2.14408 -0.7522,0.27805 -3.3641,-2.78092 -5.8042,-6.79772 z M 782.64861,322.95698 c -6.4586,-4.09593 -11.661,-11.19682 -11.661,-15.91646 0,-4.42375 4.8164,-9.20254 9.2749,-9.20254 4.505,0 13.4482,6.01563 17.3819,11.69195 3.9192,5.65547 4.0562,10.86037 0.3768,14.31699 -3.7825,3.55352 -8.8264,3.26153 -15.3726,-0.88994 z m 13.3512,-1.86603 c 0.8088,-0.97461 1.1533,-3.0362 0.7655,-4.58132 -0.9076,-3.61631 -11.5314,-13.57397 -15.5611,-14.58535 -3.5025,-0.87909 -6.6416,1.09167 -6.6416,4.16976 0,4.82571 12.3356,16.66916 17.4312,16.73579 1.3944,0.0182 3.1971,-0.76426 4.006,-1.73888 z m -11.8109,-7.05346 c -1.6801,-2.02438 -0.7865,-4.28284 1.6945,-4.28284 2.5803,0 3.4371,2.43614 1.5283,4.34499 -1.5162,1.51616 -1.9194,1.50839 -3.2228,-0.0622 z m 472.75299,5.13603 c -2.5538,-2.68462 -4.4482,-5.46642 -4.2097,-6.18177 0.9044,-2.71325 3.1934,-2.06317 4.9937,1.41823 3.2178,6.22259 8.0454,7.64595 12.3453,3.63991 3.8326,-3.57055 3.4216,-8.67748 -0.9752,-12.11847 l -3.5832,-2.80431 5.7585,-5.67188 5.7584,-5.67187 5.7105,6.10495 c 4.4127,4.71759 5.385,6.42108 4.2784,7.49606 -1.1004,1.069 -2.3755,0.30924 -5.5067,-3.28125 l -4.0747,-4.67236 -2.9364,2.75854 -2.9363,2.75854 2.9407,3.49483 c 4.0307,4.79014 3.8403,9.74571 -0.5426,14.12864 -5.3574,5.35743 -11.0384,4.89089 -17.0207,-1.39779 z m -447.82099,-11.5781 c 0,-0.53216 1.6088,-2.15697 3.575,-3.61068 3.8699,-2.86111 4.5316,-6.31849 2.1921,-11.45319 -1.6119,-3.53761 -3.3837,-3.98776 -3.3837,-0.85963 0,3.13178 -4.9825,7.35773 -8.675,7.35773 -1.8339,0 -4.9255,-1.55119 -7.3711,-3.69845 -3.405,-2.98968 -4.2123,-4.54847 -4.2123,-8.13394 0,-4.77382 3.0814,-8.65148 8.0802,-10.16836 4.0945,-1.24243 12.855,4.42281 17.0373,11.01764 4.5204,7.12792 4.6106,12.65438 0.2804,17.17415 -2.9917,3.12269 -7.5229,4.55302 -7.5229,2.37473 z m -2.1792,-14.11297 c 2.8422,-2.57216 2.7554,-5.31554 -0.2906,-9.18793 -1.5896,-2.02087 -3.6281,-3.13987 -5.72,-3.13987 -6.8771,0 -8.2553,6.32482 -2.4437,11.2149 4.2936,3.61287 5.5143,3.77355 8.4543,1.1129 z m 433.44189,9.33806 c -4.0773,-3.74912 -5.924,-6.26217 -5.3199,-7.23962 0.6975,-1.1285 1.5862,-0.87634 3.609,1.02406 l 2.6837,2.5212 8.4615,-9.38617 8.4615,-9.38618 -3.2271,-2.46263 c -2.8613,-2.18342 -2.9894,-2.55834 -1.1296,-3.30674 1.3915,-0.55996 3.5121,0.23479 6.2996,2.36095 l 4.2021,3.20506 -9.7337,10.66194 c -9.1532,10.02607 -9.6177,10.79007 -7.7892,12.81051 2.1369,2.3613 2.5733,4.94009 0.8359,4.94009 -0.6097,0 -3.9189,-2.58411 -7.3538,-5.74247 z M 853.21261,272.70608 c 0,-0.71421 1.0787,-2.1889 2.3972,-3.27708 2.3644,-1.9515 2.3054,-2.12188 -4.3169,-12.47619 l -6.7139,-10.49768 -2.7075,2.54355 c -1.8299,1.71913 -2.9756,2.10975 -3.5346,1.20519 -1.2455,-2.01521 -0.01,-4.22268 3.9542,-7.0426 l 3.567,-2.53997 7.5502,11.93631 c 7.5373,11.91606 8.0068,12.27619 13.2106,10.13391 1.4279,-0.58787 2.0854,-0.30799 2.0854,0.88775 0,0.96045 -2.9412,3.69907 -6.5359,6.08583 -6.7932,4.51044 -8.9558,5.24476 -8.9558,3.04098 z m 346.96049,-0.94887 c -1.326,-0.83709 -1.2827,-1.62865 0.2514,-4.59524 l 1.8533,-3.58394 -5.9845,-3.72022 c -3.2915,-2.04612 -5.6422,-4.27419 -5.2238,-4.95126 0.4185,-0.67708 6.0171,-3.86877 12.4414,-7.09264 9.92,-4.97808 11.9914,-5.63431 13.7427,-4.35373 1.8981,1.38791 1.626,2.20866 -3.4201,10.3172 -3.6206,5.81801 -5.0813,9.21023 -4.3015,9.98997 2.3359,2.33594 1.3186,4.35901 -1.7986,3.57665 -1.6385,-0.41125 -2.9791,-0.25584 -2.9791,0.34536 0,2.39971 -3.0016,5.065 -4.5812,4.06785 z m 8.744,-18.16938 c 2.2068,-3.49997 3.8449,-6.53103 3.6402,-6.73569 -0.5976,-0.59762 -16.1447,7.32251 -16.1447,8.22459 0,0.97068 7.5004,5.86643 8.0877,5.27912 0.2224,-0.22245 2.21,-3.26806 4.4168,-6.76802 z m -36.5731,2.07423 c -5.2511,-2.91212 -6.5449,-4.16101 -5.7101,-5.5118 0.8597,-1.39095 1.3807,-1.44529 2.5591,-0.2669 2.9169,2.91695 4.6323,1.3237 9.9285,-9.22157 2.9559,-5.88565 5.3744,-10.913 5.3744,-11.17187 0,-0.25888 -1.5979,-0.79027 -3.5508,-1.18087 -2.6345,-0.52689 -3.3617,-1.20331 -2.8177,-2.62094 0.7522,-1.96023 2.8626,-1.81575 9.3159,0.63779 l 3.0525,1.16056 -6.6479,13.25557 c -3.6563,7.29056 -6.481,13.39452 -6.277,13.56434 0.204,0.16983 1.5924,0.94457 3.0855,1.72165 2.6925,1.40134 2.622,3.80426 -0.1037,3.53797 -0.7806,-0.0763 -4.4745,-1.83302 -8.2087,-3.90393 z m -298.68899,-0.15621 c -4.6466,-3.90985 -9.7174,-14.16941 -9.7174,-19.66079 0,-8.39933 9.112,-12.39778 15.9663,-7.00619 3.3422,2.62899 8.1393,11.18935 9.5527,17.0469 1.574,6.52247 -3.2568,12.62721 -9.992,12.62721 -1.2297,0 -3.844,-1.35321 -5.8096,-3.00713 z m 10.8863,-3.05459 c 2.9718,-4.74384 -5.1743,-21.52894 -10.838,-22.33184 -6.6191,-0.93833 -7.5844,4.77555 -2.4788,14.67329 4.8699,9.44085 10.2587,12.53999 13.3168,7.65855 z m -9.9794,-8.95545 c -1.0588,-1.27579 -1.1053,-2.12849 -0.1672,-3.06657 1.6455,-1.6455 5.0346,-0.41272 5.0346,1.83134 0,2.48319 -3.1651,3.2864 -4.8674,1.23523 z m 52.534,-6.97785 c 0,-1.04352 1.3952,-2.42773 3.1003,-3.07604 1.7052,-0.6483 2.8564,-1.84159 2.5581,-2.65175 -0.2982,-0.81016 -2.0344,-6.03115 -3.8583,-11.60219 -1.8238,-5.57104 -3.4647,-10.30608 -3.6463,-10.5223 -0.1817,-0.21622 -1.6527,0.47333 -3.269,1.53235 -2.5652,1.68081 -3.0249,1.70051 -3.618,0.15509 -0.7907,-2.06069 6.7065,-7.23223 9.1342,-6.30064 0.8427,0.32336 3.324,6.53333 5.514,13.79994 3.8889,12.90352 4.0596,13.20552 7.3112,12.9342 5.2509,-0.43815 3.9372,1.91749 -2.2399,4.01659 -11.0338,3.74949 -10.9863,3.74208 -10.9863,1.71475 z m 189.17709,-3.11112 c -2.4578,-1.29752 -4.4687,-2.79319 -4.4687,-3.32372 0,-2.25588 1.709,-2.24555 6.0878,0.0368 5.8598,3.05431 10.2437,2.20563 11.3487,-2.19702 0.9562,-3.80978 -0.5064,-6.426 -4.7593,-8.51316 -3.8757,-1.9021 -2.8794,-4.25183 1.4519,-3.42386 4.2353,0.80964 7.3209,-1.0616 7.3209,-4.43974 0,-3.55463 -2.2474,-5.40089 -7.6395,-6.2759 -2.6946,-0.43726 -4.2772,-1.35417 -4.2772,-2.47798 0,-1.43104 1.0017,-1.62399 5.0646,-0.97551 6.0983,0.97336 9.9678,3.32184 11.0401,6.7005 1.2253,3.86062 -0.378,8.23144 -3.5497,9.67654 -2.6952,1.22803 -2.7597,1.47784 -1.0535,4.08188 1.2048,1.83866 1.5493,3.99487 1.022,6.39574 -1.56,7.10267 -9.205,9.16102 -17.5881,4.73544 z M 953.31261,228.2581 c 0,-1.10621 0.9804,-1.92012 2.313,-1.92012 3.6553,0 3.9022,-1.70466 1.7886,-12.34734 -2.5106,-12.64161 -3.0387,-13.54449 -6.8952,-11.78735 -2.4039,1.09525 -3.0936,1.01401 -3.6475,-0.42968 -0.4772,-1.24346 0.8242,-2.45523 4.3158,-4.01844 2.7494,-1.23097 5.3821,-2.00137 5.8503,-1.712 0.4682,0.28937 2.0079,5.74939 3.4215,12.13338 3.7856,17.09591 3.2771,16.03366 7.2567,15.1596 5.4952,-1.20696 4.5572,2.62703 -0.9969,4.07481 -10.2809,2.67983 -13.4063,2.87733 -13.4063,0.84714 z m 141.82009,0.008 c -4.5345,-0.95598 -6.6634,-2.00816 -6.937,-3.42847 -0.3258,-1.69177 0.2338,-1.92352 3.2081,-1.32865 3.0922,0.61844 3.6951,0.32113 4.2549,-2.09823 5.3583,-23.15799 5.3416,-22.48126 0.5546,-22.48126 -5.6074,0 -3.6165,-2.91128 2.2882,-3.34614 3.556,-0.26188 5.177,0.13891 5.6608,1.39958 0.3728,0.9716 -0.4696,7.43526 -1.8721,14.36368 -1.4024,6.92842 -2.217,13.1358 -1.8101,13.79417 0.4069,0.65837 1.7807,1.19704 3.0528,1.19704 1.2722,0 2.313,0.80437 2.313,1.7875 0,2.04454 -1.5842,2.06536 -10.7132,0.14078 z"
       id="path1"
       sodipodi:nodetypes="ssssssssssscssccssssssssssssssssssssscssssssssssssssssssssssssssssssssssssssssssssssssssssssssscscsssssssssscccssssssssssssssssssssscsssssssscsssssssssssssscssssssssssssssssssssssssssssssssssssssssssssssssssssscsssssssssssssssssssssssssssssssssssssssssssssssssssssscsssssssssssssscssssssssssssssssssssssssssssssssssssssssscsssssssccsssscssssscsscsssssssssssssssssssssssssssssssssssssssssssssssssssssssssssssssssssssssssssssssssssssssssssssssssssssssssssssssssssssssssssssssscccssscccsssssssssssssssssssssscccssscssssssscssccssssssscsssssssssssssssssssssscssssssssssssssssssssssssssssssssssssssssssssssssssssssssssssssssssssss" /></g><g
     inkscape:groupmode="layer"
     id="layer3"
     inkscape:label="sun"
     transform="translate(-612.95533,-117.76551)"><path
       d="m 999.60772,202.1875 h -12.96989 v -6.375 h 12.96989 c -0.13064,1.0455 -0.21989,2.10694 -0.21989,3.1875 0,1.08056 0.0892,2.142 0.21989,3.1875 z m 9.67098,-23.307 -9.1832,-9.18319 -4.50717,4.50713 9.18317,9.18319 c 1.3102,-1.68619 2.821,-3.19707 4.5072,-4.50713 z m 35.7287,4.50713 9.1831,-9.18319 -4.5071,-4.50713 -9.1831,9.18319 c 1.683,1.31006 3.1939,2.82412 4.5071,4.50713 z M 1024.8879,173.5 c 1.0805,0 2.142,0.0892 3.1875,0.21994 V 160.75 h -6.375 v 12.96994 c 1.0455,-0.13069 2.1069,-0.21994 3.1875,-0.21994 z m 0,51 c -1.0806,0 -2.142,-0.0892 -3.1875,-0.21994 V 237.25 h 6.375 v -12.96994 c -1.0455,0.13069 -2.107,0.21994 -3.1875,0.21994 z m 25.2801,-28.6875 c 0.1307,1.0455 0.2199,2.10694 0.2199,3.1875 0,1.08056 -0.089,2.142 -0.2199,3.1875 h 12.9699 v -6.375 z m -9.6677,23.307 9.18,9.18 4.5102,-4.50712 -9.18,-9.18 c -1.3132,1.68299 -2.8241,3.19387 -4.5102,4.50712 z m -35.7319,-4.51031 -9.18007,9.18 4.50717,4.50712 9.18,-9.18 c -1.683,-1.31006 -3.1971,-2.82093 -4.5071,-4.50712 z M 1012.1379,199 c 0,7.03163 5.7184,12.75 12.75,12.75 7.0316,0 12.75,-5.71837 12.75,-12.75 0,-7.03163 -5.7184,-12.75 -12.75,-12.75 -7.0316,0 -12.75,5.71837 -12.75,12.75 z m 31.875,0 c 0,10.56337 -8.5616,19.125 -19.125,19.125 -10.5634,0 -19.125,-8.56163 -19.125,-19.125 0,-10.56338 8.5616,-19.125 19.125,-19.125 10.5634,0 19.125,8.56162 19.125,19.125 z"
       id="path1-8"
       style="stroke-width:3.1875" /></g><g
     inkscape:groupmode="layer"
     id="layer4"
     inkscape:label="moon"
     transform="translate(-612.95533,-117.76551)"><path
       d="m 1012.3203,845.94695 c -4.3084,8.1424 -6.2084,18.77462 -0.8545,30.87908 5.198,11.75206 13.8564,17.85268 22.9554,20.27708 -13.2229,3.68048 -27.5317,-2.81171 -33.244,-15.72637 -5.77937,-13.06643 -0.772,-28.22223 11.1431,-35.42979 z m 0.9262,-6.81253 c -17.01979,7.52797 -24.74154,27.49787 -17.21356,44.51766 7.52806,17.01979 27.49796,24.74146 44.51776,17.21348 4.8716,-2.15476 9.5753,-5.25932 12.471,-9.14184 -9.5789,2.35165 -27.9314,1.99963 -36.4116,-17.17304 -8.5951,-19.43245 4.7809,-33.84282 11.7901,-38.49301 -5.2514,0.22533 -10.282,0.92199 -15.1537,3.07675 z m 12.5133,28.29087 c 4.1945,-0.50826 8.3691,1.1081 11.128,4.30708 -0.5031,-4.19673 1.1107,-8.37027 4.3059,-11.13055 -4.193,0.50451 -8.3654,-1.10666 -11.132,-4.30224 0.5097,4.19076 -1.104,8.36426 -4.3019,11.12571 z m 20.5808,-9.09977 c 2.7975,-0.33627 5.5762,0.73813 7.4208,2.87149 -0.3425,-2.79776 0.7358,-5.58122 2.8652,-7.42105 -2.7938,0.33771 -5.5761,-0.73816 -7.4196,-2.86892 0.3362,2.79746 -0.737,5.57865 -2.8664,7.41848 z m -12.8112,-22.01151 c 0.5109,4.19329 -1.1055,8.36797 -4.2971,11.12972 4.1993,-0.50425 8.3666,1.1092 11.1343,4.30735 -0.512,-4.19587 1.1044,-8.37054 4.2908,-11.12999 -4.183,0.50626 -8.3614,-1.1115 -11.128,-4.30708 z"
       id="path1-1"
       style="stroke-width:2.8125" /><path
       id="path2"
       style="fill:#999999;stroke:#999999"
       d="M 744.10742,534 A 282,282 0 0 0 744,535.5 a 282,282 0 0 0 282,282 282,282 0 0 0 282,-282 282,282 0 0 0 -0.037,-1.5 z" /></g></svg>
