<?xml version="1.0" encoding="utf-8"?>
<!-- Generator: Adobe Illustrator 14.0.0, SVG Export Plug-In . SVG Version: 6.00 Build 43363)  -->
<!DOCTYPE svg PUBLIC "-//W3C//DTD SVG 1.1//EN" "http://www.w3.org/Graphics/SVG/1.1/DTD/svg11.dtd">
<svg version="1.1" id="Ebene_1" xmlns="http://www.w3.org/2000/svg" xmlns:xlink="http://www.w3.org/1999/xlink" x="0px" y="0px"
	 width="90px" height="53px" viewBox="48.045 27.857 90 53" enable-background="new 48.045 27.857 90 53" xml:space="preserve">
<g>
	<path fill="#4B4B4D" stroke="#4B4B4D" stroke-width="0.7097" stroke-miterlimit="3.864" d="M63.555,74.512
		c0,1.495-1.216,2.681-2.695,2.681h-6.249c-1.455,0-2.628-1.186-2.628-2.681v-11.23c0-1.466,1.173-2.69,2.678-2.69h6.198
		c1.479,0,2.694,1.225,2.694,2.69v11.23H63.555z M67.16,74.986V62.705c0-2.981-2.576-5.379-5.612-5.379h-7.563
		c-3.023,0-5.622,2.397-5.622,5.379v12.281c0,2.988,2.395,5.478,5.431,5.478h7.958C64.726,80.464,67.16,77.975,67.16,74.986z"/>
	<path fill="#4B4B4D" stroke="#4B4B4D" stroke-width="0.7097" stroke-miterlimit="3.864" d="M88.182,59.237v-0.541
		c0-0.828-0.673-1.37-1.458-1.37h-14.4c-0.777,0-1.363,0.593-1.363,1.321v20.357c0,0.841,0.638,1.459,1.454,1.459h0.689
		c0.789,0,1.467-0.618,1.467-1.459V70.6h11.428c0.776,0,1.465-0.533,1.465-1.358v-0.539c0-0.832-0.688-1.368-1.465-1.368H74.57
		v-6.743h12.154C87.508,60.591,88.182,60.062,88.182,59.237z"/>
	<path fill="#4B4B4D" stroke="#4B4B4D" stroke-width="0.7097" stroke-miterlimit="3.864" d="M115.854,79.029V58.786
		c0-0.818-0.683-1.46-1.469-1.46h-0.674c-0.836,0-1.47,0.642-1.47,1.46v20.243c0,0.816,0.634,1.448,1.47,1.448h0.674
		C115.171,80.476,115.854,79.846,115.854,79.029z"/>
	<path fill="#4B4B4D" stroke="#4B4B4D" stroke-width="0.7097" stroke-miterlimit="3.864" d="M137.687,74.986v-3.265
		c0-2.919-2.038-4.653-4.332-4.653h-7.859c-1.757,0-2.701-1.061-2.701-2.183v-1.795c0-1.47,0.977-2.5,2.784-2.5h9.896
		c0.785,0,1.458-0.529,1.458-1.354v-0.541c0-0.828-0.673-1.37-1.506-1.37H124.74c-3.602,0-5.562,3.07-5.562,5.082v3.028
		c0,2.918,2.394,5.132,4.786,5.132c1.082,0.028,6.794-0.008,8.009,0c1.642,0,2.102,1.013,2.102,1.89v1.958
		c0,1.071-0.458,2.776-2.101,2.776h-11.377c-0.83,0-1.47,0.539-1.47,1.365v0.54c0,0.835,0.642,1.366,1.47,1.366h12.049
		C135.679,80.464,137.687,78.417,137.687,74.986z"/>
	<path fill="#4B4B4D" stroke="#4B4B4D" stroke-width="0.7097" stroke-miterlimit="3.864" d="M108.822,59.237v-0.542
		c0-0.827-0.681-1.369-1.457-1.369H92.951c-0.768,0-1.355,0.593-1.355,1.323v20.355c0,0.841,0.635,1.459,1.454,1.459h0.695
		c0.78,0,1.453-0.618,1.453-1.459V70.6h11.432c0.787,0,1.47-0.533,1.47-1.358v-0.539c0-0.832-0.683-1.368-1.47-1.368H95.199v-6.743
		h12.166C108.142,60.591,108.822,60.062,108.822,59.237z"/>
	<polygon fill="#C6C7C8" points="67.517,47.206 67.517,51.95 63.63,51.95 51.932,51.95 48.045,51.95 48.045,47.206 48.045,32.976 
		48.045,28.238 51.932,28.238 63.63,28.238 67.517,28.238 67.517,32.976 	"/>
	<polygon fill="#3399ff" points="116.206,47.206 116.206,51.95 115.344,51.95 112.75,51.95 111.884,51.95 111.884,47.206 
		111.884,32.975 111.884,28.238 112.75,28.238 115.344,28.238 116.206,28.238 116.206,32.975 	"/>
	<polygon fill="#C6C7C8" points="88.558,47.206 88.558,51.95 84.964,51.95 74.188,51.95 70.601,51.95 70.601,47.206 70.601,32.976 
		70.601,28.238 74.188,28.238 84.964,28.238 88.558,28.238 88.558,32.976 	"/>
	<polygon fill="#C6C7C8" points="109.171,47.206 109.171,51.95 105.585,51.95 94.822,51.95 91.239,51.95 91.239,47.206 
		91.239,32.976 91.239,28.238 94.822,28.238 105.585,28.238 109.171,28.238 109.171,32.976 	"/>
	<polygon fill="#C6C7C8" points="138.045,47.206 138.045,51.95 134.199,51.95 122.67,51.95 118.822,51.95 118.822,47.206 
		118.822,32.975 118.822,28.238 122.67,28.238 134.199,28.238 138.045,28.238 138.045,32.975 	"/>
	<rect x="137.748" y="77.844" fill="none" width="0.296" height="0.165"/>
</g>
</svg>
